<?xml version="1.0" standalone="no"?>
<!DOCTYPE svg PUBLIC "-//W3C//DTD SVG 20010904//EN"
 "http://www.w3.org/TR/2001/REC-SVG-20010904/DTD/svg10.dtd">
<svg version="1.0" xmlns="http://www.w3.org/2000/svg"
 width="512.000000pt" height="512.000000pt" viewBox="0 0 512.000000 512.000000"
 preserveAspectRatio="xMidYMid meet">
<metadata>
Created by potrace 1.14, written by Peter Selinger 2001-2017
</metadata>
<g transform="translate(0.000000,512.000000) scale(0.100000,-0.100000)"
fill="#000000" stroke="none">
<path d="M503 5110 c-238 -50 -434 -240 -488 -472 -14 -60 -15 -291 -13 -2110
l3 -2043 27 -67 c69 -174 182 -294 343 -366 118 -53 299 -63 422 -24 232 73
418 295 438 522 2 25 4 582 5 1238 l0 1194 461 -461 c292 -292 483 -475 522
-501 118 -77 293 -112 439 -89 83 14 192 60 264 113 32 24 257 242 499 485
242 243 442 441 445 441 3 0 6 -546 6 -1212 1 -1131 2 -1218 18 -1283 75 -291
336 -484 636 -470 259 12 483 189 562 445 l23 75 0 2030 c0 1969 -1 2032 -19
2100 -57 209 -215 373 -421 438 -106 33 -273 30 -373 -5 -125 -45 -219 -112
-304 -219 -20 -25 -352 -361 -739 -748 l-702 -702 -716 719 c-394 395 -742
748 -773 783 -78 87 -160 138 -281 174 -62 19 -225 28 -284 15z"/>
</g>
</svg>
